<?xml version="1.0" encoding="UTF-8" standalone="no"?>
<!DOCTYPE svg PUBLIC "-//W3C//DTD SVG 1.1//EN"
 "http://www.w3.org/Graphics/SVG/1.1/DTD/svg11.dtd">
<!-- Generated by graphviz version 2.43.0 (0)
 -->
<!-- Title: api.h Pages: 1 -->
<svg width="202pt" height="140pt"
 viewBox="0.00 0.00 202.00 140.00" xmlns="http://www.w3.org/2000/svg" xmlns:xlink="http://www.w3.org/1999/xlink">
<g id="graph0" class="graph" transform="scale(1 1) rotate(0) translate(4 136)">
<title>api.h</title>
<polygon fill="white" stroke="transparent" points="-4,4 -4,-136 198,-136 198,4 -4,4"/>
<!-- Node1 -->
<g id="node1" class="node">
<title>Node1</title>
<g id="a_node1"><a xlink:title=" ">
<polygon fill="#bfbfbf" stroke="black" points="77,-112.5 77,-131.5 115,-131.5 115,-112.5 77,-112.5"/>
<text text-anchor="middle" x="96" y="-119.5" font-family="Helvetica,sans-Serif" font-size="10.00">api.h</text>
</a>
</g>
</g>
<!-- Node2 -->
<g id="node2" class="node">
<title>Node2</title>
<g id="a_node2"><a xlink:href="nordic__rx_8h.html" target="_top" xlink:title=" ">
<polygon fill="white" stroke="black" points="22.5,-56.5 22.5,-75.5 87.5,-75.5 87.5,-56.5 22.5,-56.5"/>
<text text-anchor="middle" x="55" y="-63.5" font-family="Helvetica,sans-Serif" font-size="10.00">nordic_rx.h</text>
</a>
</g>
</g>
<!-- Node1&#45;&gt;Node2 -->
<g id="edge1" class="edge">
<title>Node1&#45;&gt;Node2</title>
<path fill="none" stroke="midnightblue" d="M82.98,-103.86C75.88,-94.5 67.4,-83.33 61.64,-75.75"/>
<polygon fill="midnightblue" stroke="midnightblue" points="80.39,-106.24 89.23,-112.08 85.97,-102 80.39,-106.24"/>
</g>
<!-- Node4 -->
<g id="node4" class="node">
<title>Node4</title>
<g id="a_node4"><a xlink:href="nordic__tx_8h.html" target="_top" xlink:title=" ">
<polygon fill="white" stroke="black" points="111.5,-56.5 111.5,-75.5 176.5,-75.5 176.5,-56.5 111.5,-56.5"/>
<text text-anchor="middle" x="144" y="-63.5" font-family="Helvetica,sans-Serif" font-size="10.00">nordic_tx.h</text>
</a>
</g>
</g>
<!-- Node1&#45;&gt;Node4 -->
<g id="edge3" class="edge">
<title>Node1&#45;&gt;Node4</title>
<path fill="none" stroke="midnightblue" d="M110.73,-104.43C119.14,-94.97 129.35,-83.48 136.22,-75.75"/>
<polygon fill="midnightblue" stroke="midnightblue" points="107.95,-102.28 103.93,-112.08 113.19,-106.93 107.95,-102.28"/>
</g>
<!-- Node3 -->
<g id="node3" class="node">
<title>Node3</title>
<g id="a_node3"><a xlink:href="nordic__rx__impl_8h.html" target="_top" xlink:title=" ">
<polygon fill="white" stroke="black" points="0,-0.5 0,-19.5 88,-19.5 88,-0.5 0,-0.5"/>
<text text-anchor="middle" x="44" y="-7.5" font-family="Helvetica,sans-Serif" font-size="10.00">nordic_rx_impl.h</text>
</a>
</g>
</g>
<!-- Node2&#45;&gt;Node3 -->
<g id="edge2" class="edge">
<title>Node2&#45;&gt;Node3</title>
<path fill="none" stroke="midnightblue" d="M51.15,-46.1C49.32,-37.14 47.23,-26.86 45.78,-19.75"/>
<polygon fill="midnightblue" stroke="midnightblue" points="47.76,-46.98 53.18,-56.08 54.62,-45.59 47.76,-46.98"/>
</g>
<!-- Node5 -->
<g id="node5" class="node">
<title>Node5</title>
<g id="a_node5"><a xlink:href="nordic__tx__impl_8h.html" target="_top" xlink:title=" ">
<polygon fill="white" stroke="black" points="106,-0.5 106,-19.5 194,-19.5 194,-0.5 106,-0.5"/>
<text text-anchor="middle" x="150" y="-7.5" font-family="Helvetica,sans-Serif" font-size="10.00">nordic_tx_impl.h</text>
</a>
</g>
</g>
<!-- Node4&#45;&gt;Node5 -->
<g id="edge4" class="edge">
<title>Node4&#45;&gt;Node5</title>
<path fill="none" stroke="midnightblue" d="M146.1,-46.1C147.1,-37.14 148.24,-26.86 149.03,-19.75"/>
<polygon fill="midnightblue" stroke="midnightblue" points="142.62,-45.76 144.99,-56.08 149.57,-46.53 142.62,-45.76"/>
</g>
</g>
</svg>
