<?xml version="1.0" encoding="UTF-8" standalone="no"?>
<!DOCTYPE svg PUBLIC "-//W3C//DTD SVG 1.1//EN"
 "http://www.w3.org/Graphics/SVG/1.1/DTD/svg11.dtd">
<!-- Generated by graphviz version 2.43.0 (0)
 -->
<!-- Title: gr::nordic::nordic_tx_impl Pages: 1 -->
<svg width="111pt" height="151pt"
 viewBox="0.00 0.00 111.00 151.00" xmlns="http://www.w3.org/2000/svg" xmlns:xlink="http://www.w3.org/1999/xlink">
<g id="graph0" class="graph" transform="scale(1 1) rotate(0) translate(4 147)">
<title>gr::nordic::nordic_tx_impl</title>
<polygon fill="white" stroke="transparent" points="-4,4 -4,-147 107,-147 107,4 -4,4"/>
<!-- Node1 -->
<g id="node1" class="node">
<title>Node1</title>
<g id="a_node1"><a xlink:title=" ">
<polygon fill="#bfbfbf" stroke="black" points="7,-0.5 7,-30.5 96,-30.5 96,-0.5 7,-0.5"/>
<text text-anchor="start" x="15" y="-18.5" font-family="Helvetica,sans-Serif" font-size="10.00">gr::nordic::nordic</text>
<text text-anchor="middle" x="51.5" y="-7.5" font-family="Helvetica,sans-Serif" font-size="10.00">_tx_impl</text>
</a>
</g>
</g>
<!-- Node2 -->
<g id="node2" class="node">
<title>Node2</title>
<g id="a_node2"><a xlink:href="classgr_1_1nordic_1_1nordic__tx.html" target="_top" xlink:title="&lt;+description of block+&gt;">
<polygon fill="white" stroke="black" points="0,-67.5 0,-86.5 103,-86.5 103,-67.5 0,-67.5"/>
<text text-anchor="middle" x="51.5" y="-74.5" font-family="Helvetica,sans-Serif" font-size="10.00">gr::nordic::nordic_tx</text>
</a>
</g>
</g>
<!-- Node2&#45;&gt;Node1 -->
<g id="edge1" class="edge">
<title>Node2&#45;&gt;Node1</title>
<path fill="none" stroke="midnightblue" d="M51.5,-57.23C51.5,-48.59 51.5,-38.5 51.5,-30.52"/>
<polygon fill="midnightblue" stroke="midnightblue" points="48,-57.48 51.5,-67.48 55,-57.48 48,-57.48"/>
</g>
<!-- Node3 -->
<g id="node3" class="node">
<title>Node3</title>
<g id="a_node3"><a xlink:title=" ">
<polygon fill="white" stroke="#bfbfbf" points="11.5,-123.5 11.5,-142.5 91.5,-142.5 91.5,-123.5 11.5,-123.5"/>
<text text-anchor="middle" x="51.5" y="-130.5" font-family="Helvetica,sans-Serif" font-size="10.00">gr::sync_block</text>
</a>
</g>
</g>
<!-- Node3&#45;&gt;Node2 -->
<g id="edge2" class="edge">
<title>Node3&#45;&gt;Node2</title>
<path fill="none" stroke="midnightblue" d="M51.5,-112.8C51.5,-103.91 51.5,-93.78 51.5,-86.75"/>
<polygon fill="midnightblue" stroke="midnightblue" points="48,-113.08 51.5,-123.08 55,-113.08 48,-113.08"/>
</g>
</g>
</svg>
