<?xml version="1.0" encoding="UTF-8" standalone="no"?>
<!DOCTYPE svg PUBLIC "-//W3C//DTD SVG 1.1//EN"
 "http://www.w3.org/Graphics/SVG/1.1/DTD/svg11.dtd">
<!-- Generated by graphviz version 2.43.0 (0)
 -->
<!-- Title: Graphical Class Hierarchy Pages: 1 -->
<svg width="352pt" height="88pt"
 viewBox="0.00 0.00 352.00 88.00" xmlns="http://www.w3.org/2000/svg" xmlns:xlink="http://www.w3.org/1999/xlink">
<g id="graph0" class="graph" transform="scale(1 1) rotate(0) translate(4 84)">
<title>Graphical Class Hierarchy</title>
<polygon fill="white" stroke="transparent" points="-4,4 -4,-84 348,-84 348,4 -4,4"/>
<!-- Node4 -->
<g id="node1" class="node">
<title>Node4</title>
<g id="a_node1"><a xlink:title=" ">
<polygon fill="white" stroke="#bfbfbf" points="0,-30 0,-49 80,-49 80,-30 0,-30"/>
<text text-anchor="middle" x="40" y="-37" font-family="Helvetica,sans-Serif" font-size="10.00">gr::sync_block</text>
</a>
</g>
</g>
<!-- Node0 -->
<g id="node2" class="node">
<title>Node0</title>
<g id="a_node2"><a xlink:href="classgr_1_1nordic_1_1nordic__rx.html" target="_top" xlink:title="&lt;+description of block+&gt;">
<polygon fill="white" stroke="black" points="116,-52 116,-71 219,-71 219,-52 116,-52"/>
<text text-anchor="middle" x="167.5" y="-59" font-family="Helvetica,sans-Serif" font-size="10.00">gr::nordic::nordic_rx</text>
</a>
</g>
</g>
<!-- Node4&#45;&gt;Node0 -->
<g id="edge1" class="edge">
<title>Node4&#45;&gt;Node0</title>
<path fill="none" stroke="midnightblue" d="M90.14,-48.11C98.62,-49.6 107.44,-51.15 115.95,-52.64"/>
<polygon fill="midnightblue" stroke="midnightblue" points="90.48,-44.62 80.02,-46.34 89.27,-51.51 90.48,-44.62"/>
</g>
<!-- Node7 -->
<g id="node4" class="node">
<title>Node7</title>
<g id="a_node4"><a xlink:href="classgr_1_1nordic_1_1nordic__tx.html" target="_top" xlink:title="&lt;+description of block+&gt;">
<polygon fill="white" stroke="black" points="116,-11 116,-30 219,-30 219,-11 116,-11"/>
<text text-anchor="middle" x="167.5" y="-18" font-family="Helvetica,sans-Serif" font-size="10.00">gr::nordic::nordic_tx</text>
</a>
</g>
</g>
<!-- Node4&#45;&gt;Node7 -->
<g id="edge3" class="edge">
<title>Node4&#45;&gt;Node7</title>
<path fill="none" stroke="midnightblue" d="M90.14,-32.06C98.62,-30.78 107.44,-29.44 115.95,-28.15"/>
<polygon fill="midnightblue" stroke="midnightblue" points="89.38,-28.63 80.02,-33.59 90.43,-35.56 89.38,-28.63"/>
</g>
<!-- Node1 -->
<g id="node3" class="node">
<title>Node1</title>
<g id="a_node3"><a xlink:href="classgr_1_1nordic_1_1nordic__rx__impl.html" target="_top" xlink:title=" ">
<polygon fill="white" stroke="black" points="255,-49.5 255,-79.5 344,-79.5 344,-49.5 255,-49.5"/>
<text text-anchor="start" x="263" y="-67.5" font-family="Helvetica,sans-Serif" font-size="10.00">gr::nordic::nordic</text>
<text text-anchor="middle" x="299.5" y="-56.5" font-family="Helvetica,sans-Serif" font-size="10.00">_rx_impl</text>
</a>
</g>
</g>
<!-- Node0&#45;&gt;Node1 -->
<g id="edge2" class="edge">
<title>Node0&#45;&gt;Node1</title>
<path fill="none" stroke="midnightblue" d="M229.24,-62.9C237.92,-63.1 246.7,-63.3 254.97,-63.5"/>
<polygon fill="midnightblue" stroke="midnightblue" points="229.21,-59.4 219.13,-62.67 229.05,-66.4 229.21,-59.4"/>
</g>
<!-- Node8 -->
<g id="node5" class="node">
<title>Node8</title>
<g id="a_node5"><a xlink:href="classgr_1_1nordic_1_1nordic__tx__impl.html" target="_top" xlink:title=" ">
<polygon fill="white" stroke="black" points="255,-0.5 255,-30.5 344,-30.5 344,-0.5 255,-0.5"/>
<text text-anchor="start" x="263" y="-18.5" font-family="Helvetica,sans-Serif" font-size="10.00">gr::nordic::nordic</text>
<text text-anchor="middle" x="299.5" y="-7.5" font-family="Helvetica,sans-Serif" font-size="10.00">_tx_impl</text>
</a>
</g>
</g>
<!-- Node7&#45;&gt;Node8 -->
<g id="edge4" class="edge">
<title>Node7&#45;&gt;Node8</title>
<path fill="none" stroke="midnightblue" d="M229.24,-18.16C237.92,-17.83 246.7,-17.49 254.97,-17.17"/>
<polygon fill="midnightblue" stroke="midnightblue" points="228.99,-14.67 219.13,-18.55 229.26,-21.67 228.99,-14.67"/>
</g>
</g>
</svg>
