<?xml version="1.0" encoding="UTF-8" standalone="no"?>
<!DOCTYPE svg PUBLIC "-//W3C//DTD SVG 1.1//EN"
 "http://www.w3.org/Graphics/SVG/1.1/DTD/svg11.dtd">
<!-- Generated by graphviz version 2.43.0 (0)
 -->
<!-- Title: nordic_rx_impl.h Pages: 1 -->
<svg width="563pt" height="207pt"
 viewBox="0.00 0.00 562.50 207.00" xmlns="http://www.w3.org/2000/svg" xmlns:xlink="http://www.w3.org/1999/xlink">
<g id="graph0" class="graph" transform="scale(1 1) rotate(0) translate(4 203)">
<title>nordic_rx_impl.h</title>
<polygon fill="white" stroke="transparent" points="-4,4 -4,-203 558.5,-203 558.5,4 -4,4"/>
<!-- Node1 -->
<g id="node1" class="node">
<title>Node1</title>
<g id="a_node1"><a xlink:title=" ">
<polygon fill="#bfbfbf" stroke="black" points="256.5,-179.5 256.5,-198.5 344.5,-198.5 344.5,-179.5 256.5,-179.5"/>
<text text-anchor="middle" x="300.5" y="-186.5" font-family="Helvetica,sans-Serif" font-size="10.00">nordic_rx_impl.h</text>
</a>
</g>
</g>
<!-- Node2 -->
<g id="node2" class="node">
<title>Node2</title>
<g id="a_node2"><a xlink:href="nordic__rx_8h.html" target="_top" xlink:title=" ">
<polygon fill="white" stroke="black" points="50.5,-118 50.5,-137 184.5,-137 184.5,-118 50.5,-118"/>
<text text-anchor="middle" x="117.5" y="-125" font-family="Helvetica,sans-Serif" font-size="10.00">gnuradio/nordic/nordic_rx.h</text>
</a>
</g>
</g>
<!-- Node1&#45;&gt;Node2 -->
<g id="edge1" class="edge">
<title>Node1&#45;&gt;Node2</title>
<path fill="none" stroke="midnightblue" d="M274.28,-179.48C242.48,-169.14 188.73,-151.66 153.18,-140.1"/>
<polygon fill="midnightblue" stroke="midnightblue" points="154.26,-136.77 143.67,-137.01 152.1,-143.43 154.26,-136.77"/>
</g>
<!-- Node6 -->
<g id="node6" class="node">
<title>Node6</title>
<g id="a_node6"><a xlink:title=" ">
<polygon fill="white" stroke="#bfbfbf" points="202.5,-118 202.5,-137 278.5,-137 278.5,-118 202.5,-118"/>
<text text-anchor="middle" x="240.5" y="-125" font-family="Helvetica,sans-Serif" font-size="10.00">boost/crc.hpp</text>
</a>
</g>
</g>
<!-- Node1&#45;&gt;Node6 -->
<g id="edge5" class="edge">
<title>Node1&#45;&gt;Node6</title>
<path fill="none" stroke="midnightblue" d="M291.9,-179.48C282.64,-170.28 267.68,-155.46 256.29,-144.16"/>
<polygon fill="midnightblue" stroke="midnightblue" points="258.65,-141.57 249.08,-137.01 253.72,-146.54 258.65,-141.57"/>
</g>
<!-- Node7 -->
<g id="node7" class="node">
<title>Node7</title>
<g id="a_node7"><a xlink:href="bit__shifting__byte__vector_8h.html" target="_top" xlink:title=" ">
<polygon fill="white" stroke="black" points="296.5,-118 296.5,-137 424.5,-137 424.5,-118 296.5,-118"/>
<text text-anchor="middle" x="360.5" y="-125" font-family="Helvetica,sans-Serif" font-size="10.00">bit_shifting_byte_vector.h</text>
</a>
</g>
</g>
<!-- Node1&#45;&gt;Node7 -->
<g id="edge6" class="edge">
<title>Node1&#45;&gt;Node7</title>
<path fill="none" stroke="midnightblue" d="M309.1,-179.48C318.36,-170.28 333.32,-155.46 344.71,-144.16"/>
<polygon fill="midnightblue" stroke="midnightblue" points="347.28,-146.54 351.92,-137.01 342.35,-141.57 347.28,-146.54"/>
</g>
<!-- Node8 -->
<g id="node8" class="node">
<title>Node8</title>
<g id="a_node8"><a xlink:href="enhanced__shockburst__packet_8h.html" target="_top" xlink:title=" ">
<polygon fill="white" stroke="black" points="442.5,-112.5 442.5,-142.5 554.5,-142.5 554.5,-112.5 442.5,-112.5"/>
<text text-anchor="start" x="450.5" y="-130.5" font-family="Helvetica,sans-Serif" font-size="10.00">enhanced_shockburst</text>
<text text-anchor="middle" x="498.5" y="-119.5" font-family="Helvetica,sans-Serif" font-size="10.00">_packet.h</text>
</a>
</g>
</g>
<!-- Node1&#45;&gt;Node8 -->
<g id="edge7" class="edge">
<title>Node1&#45;&gt;Node8</title>
<path fill="none" stroke="midnightblue" d="M328.87,-179.48C358.32,-170.63 405.16,-156.55 442.17,-145.43"/>
<polygon fill="midnightblue" stroke="midnightblue" points="443.27,-148.75 451.84,-142.52 441.25,-142.05 443.27,-148.75"/>
</g>
<!-- Node3 -->
<g id="node3" class="node">
<title>Node3</title>
<g id="a_node3"><a xlink:href="api_8h.html" target="_top" xlink:title=" ">
<polygon fill="white" stroke="black" points="0,-56.5 0,-75.5 107,-75.5 107,-56.5 0,-56.5"/>
<text text-anchor="middle" x="53.5" y="-63.5" font-family="Helvetica,sans-Serif" font-size="10.00">gnuradio/nordic/api.h</text>
</a>
</g>
</g>
<!-- Node2&#45;&gt;Node3 -->
<g id="edge2" class="edge">
<title>Node2&#45;&gt;Node3</title>
<path fill="none" stroke="midnightblue" d="M108.33,-117.98C98.35,-108.7 82.19,-93.67 69.99,-82.33"/>
<polygon fill="midnightblue" stroke="midnightblue" points="72.36,-79.75 62.65,-75.51 67.59,-84.88 72.36,-79.75"/>
</g>
<!-- Node5 -->
<g id="node5" class="node">
<title>Node5</title>
<g id="a_node5"><a xlink:title=" ">
<polygon fill="white" stroke="#bfbfbf" points="125.5,-56.5 125.5,-75.5 239.5,-75.5 239.5,-56.5 125.5,-56.5"/>
<text text-anchor="middle" x="182.5" y="-63.5" font-family="Helvetica,sans-Serif" font-size="10.00">gnuradio/sync_block.h</text>
</a>
</g>
</g>
<!-- Node2&#45;&gt;Node5 -->
<g id="edge4" class="edge">
<title>Node2&#45;&gt;Node5</title>
<path fill="none" stroke="midnightblue" d="M126.81,-117.98C136.95,-108.7 153.36,-93.67 165.75,-82.33"/>
<polygon fill="midnightblue" stroke="midnightblue" points="168.19,-84.84 173.2,-75.51 163.46,-79.68 168.19,-84.84"/>
</g>
<!-- Node4 -->
<g id="node4" class="node">
<title>Node4</title>
<g id="a_node4"><a xlink:title=" ">
<polygon fill="white" stroke="#bfbfbf" points="1,-0.5 1,-19.5 106,-19.5 106,-0.5 1,-0.5"/>
<text text-anchor="middle" x="53.5" y="-7.5" font-family="Helvetica,sans-Serif" font-size="10.00">gnuradio/attributes.h</text>
</a>
</g>
</g>
<!-- Node3&#45;&gt;Node4 -->
<g id="edge3" class="edge">
<title>Node3&#45;&gt;Node4</title>
<path fill="none" stroke="midnightblue" d="M53.5,-56.08C53.5,-49.01 53.5,-38.86 53.5,-29.99"/>
<polygon fill="midnightblue" stroke="midnightblue" points="57,-29.75 53.5,-19.75 50,-29.75 57,-29.75"/>
</g>
<!-- Node9 -->
<g id="node9" class="node">
<title>Node9</title>
<g id="a_node9"><a xlink:title=" ">
<polygon fill="white" stroke="#bfbfbf" points="474,-56.5 474,-75.5 523,-75.5 523,-56.5 474,-56.5"/>
<text text-anchor="middle" x="498.5" y="-63.5" font-family="Helvetica,sans-Serif" font-size="10.00">stdint.h</text>
</a>
</g>
</g>
<!-- Node8&#45;&gt;Node9 -->
<g id="edge8" class="edge">
<title>Node8&#45;&gt;Node9</title>
<path fill="none" stroke="midnightblue" d="M498.5,-112.4C498.5,-104.47 498.5,-94.46 498.5,-85.86"/>
<polygon fill="midnightblue" stroke="midnightblue" points="502,-85.66 498.5,-75.66 495,-85.66 502,-85.66"/>
</g>
</g>
</svg>
